<svg width="1920" height="192" viewBox="0 0 1920 192" fill="none" xmlns="http://www.w3.org/2000/svg">
<path d="M969.278 149.899L960.004 149.899L960.004 111.945L960.513 111.476C966.617 122.197 970.099 135.696 969.238 149.899L969.278 149.899Z" fill="#2A1A80"/>
<path d="M1012.2 149.897L975.266 149.897C975.853 141.093 975.032 132.602 972.958 124.816C981.958 116.951 990.488 108.03 998.392 98.1699C1007.31 111.473 1012.75 129.863 1012.2 149.897Z" fill="#2A1A80"/>
<path d="M994.791 93.2027C987.474 102.711 979.53 111.319 971.157 119.027C968.457 111.514 964.622 104.941 960.005 99.3849L960.005 84.3207C962.313 80.5253 964.309 76.6908 965.874 72.9346C976.4 76.0257 986.574 82.7948 994.791 93.1636L994.791 93.2027Z" fill="#2A1A80"/>
<path d="M1058.89 118.832C1061.7 116.484 1064.44 114.058 1067.18 111.476C1073.28 122.197 1076.77 135.696 1075.95 149.899L1063.07 149.899C1064.17 138.787 1062.6 128.027 1058.92 118.832L1058.89 118.832Z" fill="#2A1A80"/>
<path d="M1079.59 124.816C1088.59 116.951 1097.12 108.03 1105.02 98.1699C1113.94 111.473 1119.38 129.863 1118.87 149.897L1081.93 149.897C1082.52 141.093 1081.7 132.602 1079.62 124.816L1079.59 124.816Z" fill="#2A1A80"/>
<path d="M1019.99 124.66C1029.54 120.748 1039.36 114.683 1047.97 106.936C1056.07 118.087 1060.41 133.621 1058.65 149.937L1021.17 149.937C1023.12 141.211 1022.61 132.408 1020.03 124.66L1019.99 124.66Z" fill="#2A1A80"/>
<path d="M1050.63 104.314C1052.82 102.201 1054.9 100.01 1056.89 97.7402C1059.55 100.44 1062.06 103.492 1064.33 106.818C1061.82 109.244 1059.28 111.592 1056.7 113.862C1054.97 110.418 1052.94 107.21 1050.67 104.314L1050.63 104.314Z" fill="#2A1A80"/>
<path d="M1060.65 93.1245C1065.7 86.5901 1069.77 79.5863 1072.54 72.9346C1083.07 76.0257 1093.24 82.7948 1101.46 93.1636C1094.14 102.672 1086.2 111.28 1077.83 118.988C1074.03 108.423 1067.97 99.5805 1060.69 93.0853L1060.65 93.1245Z" fill="#2A1A80"/>
<path d="M1165.55 118.832C1168.37 116.484 1171.11 114.058 1173.85 111.476C1179.95 122.197 1183.43 135.696 1182.61 149.899L1169.74 149.899C1170.83 138.787 1169.27 128.027 1165.59 118.832L1165.55 118.832Z" fill="#2A1A80"/>
<path d="M1186.25 124.816C1195.25 116.951 1203.78 108.03 1211.69 98.1699C1220.61 111.473 1226.05 129.863 1225.54 149.897L1188.6 149.897C1189.19 141.093 1188.36 132.602 1186.29 124.816L1186.25 124.816Z" fill="#2A1A80"/>
<path d="M1126.66 124.66C1136.21 120.748 1146.03 114.683 1154.64 106.936C1162.74 118.087 1167.08 133.621 1165.32 149.937L1127.83 149.937C1129.79 141.211 1129.28 132.408 1126.7 124.66L1126.66 124.66Z" fill="#2A1A80"/>
<path d="M1170.95 106.818C1168.45 109.244 1165.91 111.592 1163.32 113.862C1161.56 110.418 1159.53 107.21 1157.26 104.314C1159.45 102.201 1161.52 100.01 1163.52 97.7402C1166.18 100.44 1168.68 103.492 1170.95 106.818Z" fill="#2A1A80"/>
<path d="M1179.21 72.9737C1189.74 76.0648 1199.95 82.8339 1208.13 93.2027C1200.81 102.711 1192.87 111.319 1184.45 119.027C1180.66 108.463 1174.59 99.6196 1167.31 93.1245C1172.36 86.5901 1176.43 79.5863 1179.21 72.9346L1179.21 72.9737Z" fill="#2A1A80"/>
<path d="M1272.22 118.832C1274.84 116.641 1277.42 114.332 1279.97 111.984L1279.97 149.938L1276.37 149.938C1277.46 138.826 1275.9 128.066 1272.22 118.871L1272.22 118.832Z" fill="#2A1A80"/>
<path d="M1233.32 124.66C1242.87 120.748 1252.69 114.683 1261.3 106.936C1269.4 118.087 1273.75 133.621 1271.98 149.937L1234.5 149.937C1236.46 141.211 1235.95 132.408 1233.36 124.66L1233.32 124.66Z" fill="#2A1A80"/>
<path d="M1270.19 97.7402C1272.85 100.44 1275.35 103.492 1277.62 106.818C1275.12 109.244 1272.57 111.592 1269.99 113.862C1268.27 110.418 1266.19 107.21 1263.92 104.314C1266.12 102.201 1268.19 100.01 1270.19 97.7402Z" fill="#2A1A80"/>
<path d="M1273.98 93.1225C1276.21 90.266 1278.17 87.2922 1279.97 84.3184L1279.97 99.3441C1278.09 97.0746 1276.09 94.9616 1273.98 93.0834L1273.98 93.1225Z" fill="#2A1A80"/>
<path d="M1014.94 80.4848C1012.24 77.9415 1009.47 75.4765 1006.65 73.1679C1010.33 63.9338 1011.93 53.2128 1010.8 42.1006L1023.67 42.1006C1024.53 56.3039 1021.01 69.8029 1014.9 80.5239L1014.94 80.4848Z" fill="#2A1A80"/>
<path d="M1052.78 93.8273C1044.92 83.928 1036.35 75.0461 1027.35 67.1814C1029.42 59.4341 1030.28 50.9043 1029.7 42.1006L1066.64 42.1006C1067.14 62.1339 1061.71 80.5239 1052.78 93.8273Z" fill="#2A1A80"/>
<path d="M995.732 85.0628C987.123 77.3156 977.302 71.2116 967.754 67.338C970.337 59.5907 970.884 50.8261 968.889 42.0615L1006.37 42.0615C1008.17 58.3778 1003.83 73.9115 995.692 85.0628L995.732 85.0628Z" fill="#2A1A80"/>
<path d="M1012.05 85.142C1009.78 88.468 1007.27 91.52 1004.61 94.22C1002.62 91.9504 1000.54 89.7592 998.352 87.6462C1000.62 84.7507 1002.66 81.542 1004.42 78.0986C1007 80.3681 1009.54 82.6768 1012.05 85.142Z" fill="#2A1A80"/>
<path d="M1049.18 98.7979C1041 109.167 1030.83 115.975 1020.27 119.027C1017.49 112.375 1013.42 105.371 1008.37 98.8371C1015.65 92.3811 1021.71 83.5382 1025.51 72.9346C1033.88 80.6427 1041.83 89.2508 1049.14 98.7588L1049.18 98.7979Z" fill="#2A1A80"/>
<path d="M1121.61 80.4848C1118.91 77.9415 1116.13 75.4765 1113.31 73.1679C1116.99 63.9338 1118.6 53.2128 1117.46 42.1006L1130.34 42.1006C1131.2 56.3039 1127.67 69.8029 1121.57 80.5239L1121.61 80.4848Z" fill="#2A1A80"/>
<path d="M1159.45 93.8273C1151.59 83.928 1143.02 75.0461 1134.02 67.1814C1136.09 59.4341 1136.95 50.9043 1136.33 42.1006L1173.26 42.1006C1173.77 62.1339 1168.33 80.5239 1159.41 93.8273L1159.45 93.8273Z" fill="#2A1A80"/>
<path d="M1102.4 85.0628C1093.79 77.3156 1083.97 71.2116 1074.42 67.338C1077 59.5907 1077.55 50.8261 1075.55 42.0615L1113.04 42.0615C1114.84 58.3778 1110.5 73.9115 1102.36 85.0628L1102.4 85.0628Z" fill="#2A1A80"/>
<path d="M1118.71 85.142C1116.44 88.468 1113.94 91.52 1111.28 94.22C1109.28 91.9504 1107.21 89.7592 1105.02 87.6462C1107.29 84.7507 1109.32 81.542 1111.08 78.0986C1113.67 80.3681 1116.21 82.6768 1118.71 85.142Z" fill="#2A1A80"/>
<path d="M1155.85 98.7979C1147.67 109.167 1137.5 115.975 1126.93 119.027C1124.15 112.375 1120.08 105.371 1115.04 98.8371C1122.31 92.3811 1128.38 83.5382 1132.18 72.9346C1140.59 80.6427 1148.49 89.2508 1155.81 98.7588L1155.85 98.7979Z" fill="#2A1A80"/>
<path d="M1228.28 80.4848C1225.58 77.9415 1222.8 75.4765 1219.98 73.1679C1223.66 63.9338 1225.27 53.2128 1224.13 42.1006L1237.01 42.1006C1237.87 56.3039 1234.34 69.8029 1228.24 80.5239L1228.28 80.4848Z" fill="#2A1A80"/>
<path d="M1266.12 93.8273C1258.25 83.928 1249.68 75.0461 1240.68 67.1814C1242.76 59.4341 1243.62 50.9043 1243.03 42.1006L1279.97 42.1006C1280.48 62.1339 1275.04 80.5239 1266.12 93.8273Z" fill="#2A1A80"/>
<path d="M1209.07 85.0628C1200.46 77.3156 1190.64 71.2116 1181.09 67.338C1183.67 59.5907 1184.22 50.8261 1182.22 42.0615L1219.71 42.0615C1221.47 58.3778 1217.16 73.9115 1209.03 85.0628L1209.07 85.0628Z" fill="#2A1A80"/>
<path d="M1225.38 85.142C1223.11 88.468 1220.61 91.52 1217.95 94.22C1215.95 91.9504 1213.88 89.7592 1211.69 87.6462C1213.96 84.7507 1215.99 81.542 1217.75 78.0986C1220.34 80.3681 1222.88 82.6768 1225.38 85.142Z" fill="#2A1A80"/>
<path d="M1262.51 98.7979C1254.34 109.167 1244.16 115.975 1233.6 119.027C1230.82 112.375 1226.75 105.371 1221.7 98.8371C1228.98 92.3811 1235.05 83.5382 1238.84 72.9346C1247.21 80.6427 1255.16 89.2508 1262.51 98.7588L1262.51 98.7979Z" fill="#2A1A80"/>
<path d="M996.514 33.8846L960.006 33.8846L960.006 -1.59581e-06L984.619 -5.19962e-07C987.475 11.3079 993.384 22.5767 996.514 33.8846Z" fill="#2A1A80"/>
<path d="M1008.76 33.8846C1005.63 22.5767 999.722 11.3079 996.866 -2.35181e-06L1038.73 -5.21674e-07C1041.59 11.3079 1047.5 22.5767 1050.67 33.8846L1008.76 33.8846Z" fill="#2A1A80"/>
<path d="M1062.88 33.8846C1059.75 22.5767 1053.84 11.3079 1050.98 -2.35181e-06L1092.89 -5.19962e-07C1095.75 11.3079 1101.65 22.5767 1104.79 33.8846L1062.92 33.8846L1062.88 33.8846Z" fill="#2A1A80"/>
<path d="M1171.15 33.8846C1168.02 22.5767 1162.11 11.3079 1159.25 -2.35181e-06L1201.16 -5.19962e-07C1204.02 11.3079 1209.93 22.5767 1213.06 33.8846L1171.19 33.8846L1171.15 33.8846Z" fill="#2A1A80"/>
<path d="M1225.27 33.8846C1222.1 22.5767 1216.23 11.3079 1213.37 -2.3501e-06L1255.24 -5.19964e-07C1258.1 11.3079 1264 22.5767 1267.13 33.8846L1225.27 33.8846Z" fill="#2A1A80"/>
<path d="M1267.48 -5.45619e-07L1279.97 0L1279.97 33.8846L1279.38 33.8846C1276.21 22.5767 1270.34 11.3079 1267.48 -5.45619e-07Z" fill="#2A1A80"/>
<path d="M1116.99 33.8846C1113.86 22.5767 1107.96 11.3079 1105.1 -2.3501e-06L1146.97 -5.19964e-07C1149.82 11.3079 1155.73 22.5767 1158.86 33.8846L1116.99 33.8846Z" fill="#2A1A80"/>
<path d="M984.619 192L960.006 192L960.006 158.115L996.514 158.115C993.384 169.384 987.475 180.692 984.619 192Z" fill="#2A1A80"/>
<path d="M996.866 192C999.722 180.692 1005.63 169.423 1008.76 158.115L1050.67 158.115C1047.5 169.384 1041.63 180.692 1038.73 192L996.866 192Z" fill="#2A1A80"/>
<path d="M1050.98 192C1053.84 180.692 1059.75 169.423 1062.88 158.115L1104.79 158.115C1101.65 169.384 1095.75 180.692 1092.89 192L1051.02 192L1050.98 192Z" fill="#2A1A80"/>
<path d="M1159.25 192C1162.11 180.692 1168.02 169.423 1171.15 158.115L1213.02 158.115C1209.89 169.384 1203.98 180.692 1201.12 192L1159.21 192L1159.25 192Z" fill="#2A1A80"/>
<path d="M1213.37 192C1216.23 180.692 1222.14 169.423 1225.27 158.115L1267.13 158.115C1264 169.384 1258.1 180.692 1255.24 192L1213.37 192Z" fill="#2A1A80"/>
<path d="M1279.38 158.115L1279.97 158.115L1279.97 192L1267.48 192C1270.34 180.692 1276.25 169.423 1279.38 158.115Z" fill="#2A1A80"/>
<path d="M1105.1 192C1107.96 180.692 1113.86 169.423 1116.99 158.115L1158.86 158.115C1155.73 169.384 1149.82 180.692 1146.97 192L1105.1 192Z" fill="#2A1A80"/>
<path d="M1289.24 149.899L1279.97 149.899L1279.97 111.945L1280.47 111.476C1286.58 122.197 1290.06 135.696 1289.24 149.899Z" fill="#2A1A80"/>
<path d="M1332.2 149.897L1295.27 149.897C1295.85 141.093 1294.99 132.602 1292.92 124.816C1301.92 116.951 1310.45 108.03 1318.35 98.1699C1327.27 111.473 1332.71 129.863 1332.2 149.897Z" fill="#2A1A80"/>
<path d="M1314.75 93.2027C1307.44 102.711 1299.49 111.319 1291.08 119.027C1288.38 111.514 1284.55 104.941 1279.93 99.3849L1279.93 84.3207C1282.24 80.5253 1284.23 76.6908 1285.8 72.9346C1296.32 76.0257 1306.5 82.7948 1314.72 93.1636L1314.75 93.2027Z" fill="#2A1A80"/>
<path d="M1378.89 118.832C1381.7 116.484 1384.44 114.058 1387.18 111.476C1393.29 122.197 1396.77 135.696 1395.95 149.899L1383.07 149.899C1384.17 138.787 1382.6 128.027 1378.93 118.832L1378.89 118.832Z" fill="#2A1A80"/>
<path d="M1399.59 124.816C1408.59 116.951 1417.12 108.03 1425.02 98.1699C1433.94 111.473 1439.38 129.863 1438.87 149.897L1401.94 149.897C1402.52 141.093 1401.66 132.602 1399.63 124.816L1399.59 124.816Z" fill="#2A1A80"/>
<path d="M1339.99 124.66C1349.54 120.748 1359.36 114.683 1367.97 106.936C1376.11 118.087 1380.41 133.621 1378.65 149.937L1341.17 149.937C1343.12 141.211 1342.61 132.408 1340.03 124.66L1339.99 124.66Z" fill="#2A1A80"/>
<path d="M1370.63 104.314C1372.82 102.201 1374.89 100.01 1376.89 97.7402C1379.55 100.44 1382.05 103.492 1384.32 106.818C1381.82 109.244 1379.28 111.592 1376.69 113.862C1374.93 110.418 1372.94 107.21 1370.63 104.314Z" fill="#2A1A80"/>
<path d="M1380.65 93.1245C1385.69 86.5901 1389.76 79.5863 1392.54 72.9346C1403.07 76.0257 1413.24 82.7948 1421.46 93.1636C1414.14 102.672 1406.2 111.28 1397.82 118.988C1394.03 108.423 1387.96 99.5805 1380.69 93.0853L1380.65 93.1245Z" fill="#2A1A80"/>
<path d="M1485.55 118.832C1488.37 116.484 1491.11 114.058 1493.85 111.476C1499.95 122.197 1503.44 135.696 1502.61 149.899L1489.74 149.899C1490.84 138.787 1489.27 128.027 1485.59 118.832L1485.55 118.832Z" fill="#2A1A80"/>
<path d="M1506.25 124.816C1515.25 116.951 1523.78 108.03 1531.69 98.1699C1540.61 111.473 1546.05 129.863 1545.54 149.897L1508.6 149.897C1509.19 141.093 1508.37 132.602 1506.29 124.816L1506.25 124.816Z" fill="#2A1A80"/>
<path d="M1446.66 124.66C1456.2 120.748 1466.03 114.683 1474.63 106.936C1482.73 118.087 1487.08 133.621 1485.32 149.937L1447.83 149.937C1449.79 141.211 1449.28 132.408 1446.7 124.66L1446.66 124.66Z" fill="#2A1A80"/>
<path d="M1490.95 106.818C1488.45 109.244 1485.9 111.592 1483.32 113.862C1481.56 110.418 1479.53 107.21 1477.26 104.314C1479.45 102.201 1481.52 100.01 1483.52 97.7402C1486.18 100.44 1488.68 103.492 1490.95 106.818Z" fill="#2A1A80"/>
<path d="M1499.21 72.9737C1509.73 76.0648 1519.95 82.8339 1528.12 93.2027C1520.81 102.711 1512.86 111.319 1504.49 119.027C1500.69 108.463 1494.63 99.6196 1487.35 93.1245C1492.4 86.5901 1496.47 79.5863 1499.25 72.9346L1499.21 72.9737Z" fill="#2A1A80"/>
<path d="M1592.22 118.832C1594.84 116.641 1597.42 114.332 1599.97 111.984L1599.97 149.938L1596.37 149.938C1597.46 138.826 1595.9 128.066 1592.22 118.871L1592.22 118.832Z" fill="#2A1A80"/>
<path d="M1553.33 124.66C1562.87 120.748 1572.7 114.683 1581.3 106.936C1589.4 118.087 1593.75 133.621 1591.99 149.937L1554.5 149.937C1556.46 141.211 1555.95 132.408 1553.37 124.66L1553.33 124.66Z" fill="#2A1A80"/>
<path d="M1590.19 97.7402C1592.85 100.44 1595.35 103.492 1597.62 106.818C1595.12 109.244 1592.57 111.592 1589.99 113.862C1588.23 110.418 1586.2 107.21 1583.93 104.314C1586.12 102.201 1588.19 100.01 1590.19 97.7402Z" fill="#2A1A80"/>
<path d="M1593.98 93.1225C1596.17 90.266 1598.17 87.2922 1599.97 84.3184L1599.97 99.3441C1598.09 97.0746 1596.09 94.9616 1593.98 93.0834L1593.98 93.1225Z" fill="#2A1A80"/>
<path d="M1334.94 80.4848C1332.24 77.9415 1329.47 75.4765 1326.69 73.1679C1330.37 63.9338 1331.93 53.2128 1330.84 42.1006L1343.71 42.1006C1344.57 56.3039 1341.05 69.8029 1334.94 80.5239L1334.94 80.4848Z" fill="#2A1A80"/>
<path d="M1372.78 93.8273C1364.92 83.928 1356.39 75.0461 1347.35 67.1814C1349.42 59.4341 1350.28 50.9043 1349.66 42.1006L1386.6 42.1006C1387.1 62.1339 1381.67 80.5239 1372.74 93.8273L1372.78 93.8273Z" fill="#2A1A80"/>
<path d="M1315.73 85.0628C1307.12 77.3156 1297.3 71.2116 1287.75 67.338C1290.33 59.5907 1290.88 50.8261 1288.89 42.0615L1326.37 42.0615C1328.17 58.3778 1323.83 73.9115 1315.69 85.0628L1315.73 85.0628Z" fill="#2A1A80"/>
<path d="M1332.05 85.142C1329.78 88.468 1327.28 91.52 1324.61 94.22C1322.66 91.9504 1320.55 89.7592 1318.35 87.6462C1320.62 84.7507 1322.66 81.542 1324.42 78.0986C1327 80.3681 1329.55 82.6768 1332.05 85.142Z" fill="#2A1A80"/>
<path d="M1369.18 98.7979C1361 109.167 1350.83 115.975 1340.26 119.027C1337.49 112.375 1333.42 105.371 1328.37 98.8371C1335.65 92.3811 1341.71 83.5382 1345.51 72.9346C1353.88 80.6427 1361.82 89.2508 1369.14 98.7588L1369.18 98.7979Z" fill="#2A1A80"/>
<path d="M1441.61 80.4848C1438.91 77.9415 1436.13 75.4765 1433.32 73.1679C1436.99 63.9338 1438.6 53.2128 1437.46 42.1006L1450.34 42.1006C1451.2 56.3039 1447.68 69.8029 1441.57 80.5239L1441.61 80.4848Z" fill="#2A1A80"/>
<path d="M1479.45 93.8273C1471.58 83.928 1463.01 75.0461 1454.01 67.1814C1456.09 59.4341 1456.95 50.9043 1456.32 42.1006L1493.26 42.1006C1493.77 62.1339 1488.33 80.5239 1479.41 93.8273L1479.45 93.8273Z" fill="#2A1A80"/>
<path d="M1422.4 85.0628C1413.79 77.3156 1403.97 71.2116 1394.42 67.338C1397 59.5907 1397.55 50.8261 1395.56 42.0615L1433.04 42.0615C1434.84 58.3778 1430.5 73.9115 1422.36 85.0628L1422.4 85.0628Z" fill="#2A1A80"/>
<path d="M1438.72 85.142C1436.45 88.468 1433.94 91.52 1431.28 94.22C1429.29 91.9504 1427.21 89.7592 1425.02 87.6462C1427.29 84.7507 1429.32 81.542 1431.09 78.0986C1433.67 80.3681 1436.21 82.6768 1438.72 85.142Z" fill="#2A1A80"/>
<path d="M1475.85 98.7979C1467.67 109.167 1457.5 115.975 1446.93 119.027C1444.16 112.375 1440.09 105.371 1435.04 98.8371C1442.32 92.3811 1448.38 83.5382 1452.18 72.9346C1460.59 80.6427 1468.49 89.2508 1475.85 98.7588L1475.85 98.7979Z" fill="#2A1A80"/>
<path d="M1548.28 80.4848C1545.58 77.9415 1542.8 75.4765 1539.98 73.1679C1543.66 63.9338 1545.26 53.2128 1544.13 42.1006L1557 42.1006C1557.86 56.3039 1554.34 69.8029 1548.24 80.5239L1548.28 80.4848Z" fill="#2A1A80"/>
<path d="M1586.11 93.8273C1578.25 83.928 1569.68 75.0461 1560.68 67.1814C1562.75 59.4341 1563.62 50.9043 1562.99 42.1006L1599.93 42.1006C1600.44 62.1339 1595 80.5239 1586.08 93.8273L1586.11 93.8273Z" fill="#2A1A80"/>
<path d="M1529.07 85.0628C1520.46 77.3156 1510.64 71.2116 1501.09 67.338C1503.67 59.5907 1504.22 50.8261 1502.22 42.0615L1539.71 42.0615C1541.51 58.3778 1537.17 73.9115 1529.03 85.0628L1529.07 85.0628Z" fill="#2A1A80"/>
<path d="M1545.38 85.142C1543.11 88.468 1540.61 91.52 1537.95 94.22C1535.95 91.9504 1533.88 89.7592 1531.69 87.6462C1533.96 84.7507 1535.99 81.542 1537.75 78.0986C1540.33 80.3681 1542.88 82.6768 1545.38 85.142Z" fill="#2A1A80"/>
<path d="M1582.52 98.7979C1574.34 109.167 1564.16 115.975 1553.6 119.027C1550.82 112.375 1546.75 105.371 1541.7 98.8371C1548.98 92.3811 1555.05 83.5382 1558.84 72.9346C1567.22 80.6427 1575.16 89.2508 1582.48 98.7588L1582.52 98.7979Z" fill="#2A1A80"/>
<path d="M1316.51 33.8846L1280 33.8846L1280 -1.59581e-06L1304.62 -5.19962e-07C1307.47 11.3079 1313.38 22.5767 1316.51 33.8846Z" fill="#2A1A80"/>
<path d="M1328.76 33.8846C1325.59 22.5767 1319.72 11.3079 1316.86 -2.3501e-06L1358.73 -5.19962e-07C1361.59 11.3079 1367.5 22.5767 1370.63 33.8846L1328.76 33.8846Z" fill="#2A1A80"/>
<path d="M1382.88 33.8846C1379.75 22.5767 1373.84 11.3079 1370.98 -2.3501e-06L1412.85 -5.19964e-07C1415.71 11.3079 1421.61 22.5767 1424.75 33.8846L1382.88 33.8846Z" fill="#2A1A80"/>
<path d="M1491.15 33.8846C1488.02 22.5767 1482.11 11.3079 1479.26 -2.35181e-06L1521.16 -5.19963e-07C1524.02 11.3079 1529.93 22.5767 1533.06 33.8846L1491.19 33.8846L1491.15 33.8846Z" fill="#2A1A80"/>
<path d="M1545.26 33.8846C1542.13 22.5767 1536.22 11.3079 1533.37 -2.3501e-06L1575.24 -5.19963e-07C1578.09 11.3079 1584 22.5767 1587.13 33.8846L1545.26 33.8846Z" fill="#2A1A80"/>
<path d="M1587.49 -5.45619e-07L1599.97 0L1599.97 33.8846L1599.38 33.8846C1596.25 22.5767 1590.34 11.3079 1587.49 -5.45619e-07Z" fill="#2A1A80"/>
<path d="M1436.99 33.8846C1433.86 22.5767 1427.95 11.3079 1425.1 -2.35009e-06L1466.97 -5.19962e-07C1469.82 11.3079 1475.73 22.5767 1478.86 33.8846L1436.99 33.8846Z" fill="#2A1A80"/>
<path d="M1304.62 192L1280 192L1280 158.115L1316.51 158.115C1313.38 169.384 1307.47 180.692 1304.62 192Z" fill="#2A1A80"/>
<path d="M1316.86 192C1319.72 180.692 1325.63 169.423 1328.76 158.115L1370.63 158.115C1367.5 169.384 1361.59 180.692 1358.73 192L1316.86 192Z" fill="#2A1A80"/>
<path d="M1370.98 192C1373.84 180.692 1379.75 169.423 1382.88 158.115L1424.74 158.115C1421.61 169.384 1415.71 180.692 1412.85 192L1370.98 192Z" fill="#2A1A80"/>
<path d="M1479.21 192C1482.07 180.692 1487.98 169.423 1491.11 158.115L1532.98 158.115C1529.85 169.384 1523.94 180.692 1521.08 192L1479.17 192L1479.21 192Z" fill="#2A1A80"/>
<path d="M1533.37 192C1536.22 180.692 1542.13 169.423 1545.26 158.115L1587.13 158.115C1584 169.384 1578.09 180.692 1575.24 192L1533.37 192Z" fill="#2A1A80"/>
<path d="M1599.38 158.115L1599.97 158.115L1599.97 192L1587.49 192C1590.34 180.692 1596.25 169.423 1599.38 158.115Z" fill="#2A1A80"/>
<path d="M1425.1 192C1427.95 180.692 1433.86 169.423 1436.99 158.115L1478.86 158.115C1475.69 169.384 1469.82 180.692 1466.97 192L1425.1 192Z" fill="#2A1A80"/>
<path d="M1609.24 149.899L1599.97 149.899L1599.97 111.945L1600.48 111.476C1606.58 122.197 1610.06 135.696 1609.24 149.899Z" fill="#2A1A80"/>
<path d="M1652.17 149.897L1615.23 149.897C1615.81 141.093 1614.99 132.602 1612.92 124.816C1621.92 116.951 1630.45 108.03 1638.35 98.1699C1647.27 111.473 1652.71 129.863 1652.17 149.897Z" fill="#2A1A80"/>
<path d="M1634.75 93.2027C1627.43 102.711 1619.49 111.319 1611.08 119.027C1608.38 111.514 1604.54 104.941 1599.97 99.3849L1599.97 84.3207C1602.27 80.5253 1604.27 76.6908 1605.84 72.9346C1616.36 76.0257 1626.54 82.7948 1634.75 93.1636L1634.75 93.2027Z" fill="#2A1A80"/>
<path d="M1698.88 118.832C1701.7 116.484 1704.44 114.058 1707.18 111.476C1713.28 122.197 1716.77 135.696 1715.95 149.899L1703.07 149.899C1704.17 138.787 1702.6 128.027 1698.92 118.832L1698.88 118.832Z" fill="#2A1A80"/>
<path d="M1719.59 124.816C1728.59 116.951 1737.12 108.03 1745.02 98.1699C1753.94 111.473 1759.38 129.863 1758.87 149.897L1721.93 149.897C1722.52 141.093 1721.66 132.602 1719.62 124.816L1719.59 124.816Z" fill="#2A1A80"/>
<path d="M1659.99 124.66C1669.54 120.748 1679.36 114.683 1687.97 106.936C1696.07 118.087 1700.41 133.621 1698.65 149.937L1661.17 149.937C1663.16 141.211 1662.61 132.408 1660.03 124.66L1659.99 124.66Z" fill="#2A1A80"/>
<path d="M1690.59 104.314C1692.78 102.201 1694.86 100.01 1696.85 97.7402C1699.51 100.44 1702.02 103.492 1704.29 106.818C1701.78 109.244 1699.24 111.592 1696.66 113.862C1694.94 110.418 1692.9 107.21 1690.59 104.314Z" fill="#2A1A80"/>
<path d="M1700.65 93.1245C1705.7 86.5901 1709.77 79.5863 1712.54 72.9346C1723.07 76.0257 1733.24 82.7948 1741.46 93.1636C1734.14 102.672 1726.2 111.28 1717.83 118.988C1714.03 108.423 1707.97 99.5805 1700.69 93.0853L1700.65 93.1245Z" fill="#2A1A80"/>
<path d="M1805.55 118.832C1808.37 116.484 1811.11 114.058 1813.85 111.476C1819.95 122.197 1823.43 135.696 1822.61 149.899L1809.74 149.899C1810.83 138.787 1809.27 128.027 1805.59 118.832L1805.55 118.832Z" fill="#2A1A80"/>
<path d="M1826.25 124.816C1835.25 116.951 1843.78 108.03 1851.69 98.1699C1860.61 111.473 1866.05 129.863 1865.5 149.897L1828.56 149.897C1829.15 141.093 1828.29 132.602 1826.25 124.816Z" fill="#2A1A80"/>
<path d="M1766.66 124.66C1776.2 120.748 1786.03 114.683 1794.63 106.936C1802.77 118.087 1807.08 133.621 1805.32 149.937L1767.83 149.937C1769.79 141.211 1769.28 132.408 1766.7 124.66L1766.66 124.66Z" fill="#2A1A80"/>
<path d="M1810.95 106.818C1808.45 109.244 1805.9 111.592 1803.32 113.862C1801.56 110.418 1799.57 107.21 1797.3 104.314C1799.49 102.201 1801.56 100.01 1803.56 97.7402C1806.22 100.44 1808.72 103.492 1810.99 106.818L1810.95 106.818Z" fill="#2A1A80"/>
<path d="M1819.17 72.9737C1829.7 76.0648 1839.87 82.8339 1848.09 93.2027C1840.77 102.711 1832.83 111.319 1824.45 119.027C1820.66 108.463 1814.59 99.6196 1807.32 93.1245C1812.36 86.5901 1816.43 79.5863 1819.21 72.9346L1819.17 72.9737Z" fill="#2A1A80"/>
<path d="M1912.22 118.832C1914.84 116.641 1917.42 114.332 1919.97 111.984L1919.97 149.938L1916.37 149.938C1917.46 138.826 1915.9 128.066 1912.22 118.871L1912.22 118.832Z" fill="#2A1A80"/>
<path d="M1873.32 124.66C1882.87 120.748 1892.69 114.683 1901.3 106.936C1909.4 118.087 1913.75 133.621 1911.98 149.937L1874.5 149.937C1876.46 141.211 1875.95 132.408 1873.36 124.66L1873.32 124.66Z" fill="#2A1A80"/>
<path d="M1910.18 97.7402C1912.85 100.44 1915.35 103.492 1917.62 106.818C1915.12 109.244 1912.57 111.592 1909.99 113.862C1908.23 110.418 1906.19 107.21 1903.92 104.314C1906.12 102.201 1908.19 100.01 1910.18 97.7402Z" fill="#2A1A80"/>
<path d="M1913.98 93.1225C1916.17 90.266 1918.17 87.2922 1919.97 84.3184L1919.97 99.3441C1918.09 97.0746 1916.09 94.9616 1913.98 93.0834L1913.98 93.1225Z" fill="#2A1A80"/>
<path d="M1654.9 80.4848C1652.2 77.9415 1649.43 75.4765 1646.65 73.1679C1650.33 63.9338 1651.93 53.2128 1650.8 42.1006L1663.67 42.1006C1664.53 56.3039 1661.01 69.8029 1654.9 80.5239L1654.9 80.4848Z" fill="#2A1A80"/>
<path d="M1692.78 93.8273C1684.92 83.928 1676.35 75.0461 1667.35 67.1814C1669.42 59.4341 1670.28 50.9043 1669.65 42.1006L1706.59 42.1006C1707.1 62.1339 1701.66 80.5239 1692.74 93.8273L1692.78 93.8273Z" fill="#2A1A80"/>
<path d="M1635.73 85.0628C1627.12 77.3156 1617.3 71.2116 1607.75 67.338C1610.34 59.5907 1610.89 50.8261 1608.89 42.0615L1646.38 42.0615C1648.14 58.3778 1643.83 73.9115 1635.69 85.0628L1635.73 85.0628Z" fill="#2A1A80"/>
<path d="M1652.05 85.142C1649.78 88.468 1647.27 91.52 1644.61 94.22C1642.66 91.9504 1640.54 89.7592 1638.35 87.6462C1640.62 84.7507 1642.66 81.542 1644.42 78.0986C1647 80.3681 1649.54 82.6768 1652.05 85.142Z" fill="#2A1A80"/>
<path d="M1689.18 98.7979C1681 109.167 1670.83 115.975 1660.27 119.027C1657.49 112.375 1653.42 105.371 1648.37 98.8371C1655.65 92.3811 1661.71 83.5382 1665.51 72.9346C1673.88 80.6427 1681.83 89.2508 1689.18 98.7588L1689.18 98.7979Z" fill="#2A1A80"/>
<path d="M1761.61 80.4848C1758.91 77.9415 1756.13 75.4765 1753.31 73.1679C1756.99 63.9338 1758.6 53.2128 1757.46 42.1006L1770.33 42.1006C1771.2 56.3039 1767.67 69.8029 1761.61 80.5239L1761.61 80.4848Z" fill="#2A1A80"/>
<path d="M1799.45 93.8273C1791.59 83.928 1783.02 75.0461 1774.02 67.1814C1776.09 59.4341 1776.95 50.9043 1776.32 42.1006L1813.26 42.1006C1813.77 62.1339 1808.33 80.5239 1799.41 93.8273L1799.45 93.8273Z" fill="#2A1A80"/>
<path d="M1742.4 85.0628C1733.79 77.3156 1723.97 71.2116 1714.42 67.338C1717 59.5907 1717.55 50.8261 1715.55 42.0615L1753.04 42.0615C1754.84 58.3778 1750.5 73.9115 1742.36 85.0628L1742.4 85.0628Z" fill="#2A1A80"/>
<path d="M1758.71 85.142C1756.44 88.468 1753.94 91.52 1751.28 94.22C1749.32 91.9504 1747.21 89.7592 1745.02 87.6462C1747.29 84.7507 1749.32 81.542 1751.08 78.0986C1753.67 80.3681 1756.21 82.6768 1758.71 85.142Z" fill="#2A1A80"/>
<path d="M1795.85 98.7979C1787.67 109.167 1777.5 115.975 1766.93 119.027C1764.15 112.375 1760.08 105.371 1755.04 98.8371C1762.31 92.3811 1768.38 83.5382 1772.17 72.9346C1780.55 80.6427 1788.49 89.2508 1795.81 98.7588L1795.85 98.7979Z" fill="#2A1A80"/>
<path d="M1868.24 80.4848C1865.54 77.9415 1862.76 75.4765 1859.98 73.1679C1863.66 63.9338 1865.23 53.2128 1864.13 42.1006L1877 42.1006C1877.87 56.3039 1874.34 69.8029 1868.24 80.5239L1868.24 80.4848Z" fill="#2A1A80"/>
<path d="M1906.12 93.8273C1898.25 83.928 1889.68 75.0461 1880.68 67.1814C1882.76 59.4341 1883.62 50.9043 1882.99 42.1006L1919.97 42.1006C1920.48 62.1339 1915.04 80.5239 1906.15 93.8273L1906.12 93.8273Z" fill="#2A1A80"/>
<path d="M1849.06 85.0628C1840.46 77.3156 1830.63 71.2116 1821.09 67.338C1823.67 59.5907 1824.22 50.8261 1822.22 42.0615L1859.71 42.0615C1861.47 58.3778 1857.16 73.9115 1849.03 85.0628L1849.06 85.0628Z" fill="#2A1A80"/>
<path d="M1865.38 85.142C1863.11 88.468 1860.61 91.52 1857.95 94.22C1855.95 91.9504 1853.88 89.7592 1851.69 87.6462C1853.96 84.7507 1855.99 81.542 1857.75 78.0986C1860.34 80.3681 1862.88 82.6768 1865.38 85.142Z" fill="#2A1A80"/>
<path d="M1902.51 98.7979C1894.34 109.167 1884.16 115.975 1873.6 119.027C1870.82 112.375 1866.75 105.371 1861.7 98.8371C1868.98 92.3811 1875.05 83.5382 1878.84 72.9346C1887.21 80.6427 1895.16 89.2508 1902.47 98.7588L1902.51 98.7979Z" fill="#2A1A80"/>
<path d="M1636.48 33.8846L1599.97 33.8846L1599.97 -1.59581e-06L1624.58 -5.19963e-07C1627.44 11.3079 1633.35 22.5767 1636.48 33.8846Z" fill="#2A1A80"/>
<path d="M1648.76 33.8846C1645.63 22.5767 1639.72 11.3079 1636.87 -2.35009e-06L1678.73 -5.19963e-07C1681.59 11.3079 1687.5 22.5767 1690.63 33.8846L1648.76 33.8846Z" fill="#2A1A80"/>
<path d="M1702.88 33.8846C1699.71 22.5767 1693.84 11.3079 1690.98 -2.35009e-06L1732.85 -5.19963e-07C1735.71 11.3079 1741.62 22.5767 1744.75 33.8846L1702.88 33.8846Z" fill="#2A1A80"/>
<path d="M1811.11 33.8846C1807.98 22.5767 1802.07 11.3079 1799.22 -2.35009e-06L1841.08 -5.19963e-07C1843.94 11.3079 1849.85 22.5767 1852.98 33.8846L1811.11 33.8846Z" fill="#2A1A80"/>
<path d="M1865.27 33.8846C1862.13 22.5767 1856.23 11.3079 1853.37 -2.35009e-06L1895.24 -5.19963e-07C1898.09 11.3079 1904 22.5767 1907.13 33.8846L1865.27 33.8846Z" fill="#2A1A80"/>
<path d="M1907.48 -5.45619e-07L1919.97 0L1919.97 33.8846L1919.38 33.8846C1916.25 22.5767 1910.34 11.3079 1907.48 -5.45619e-07Z" fill="#2A1A80"/>
<path d="M1756.99 33.8846C1753.86 22.5767 1747.96 11.3079 1745.1 -2.35009e-06L1786.97 -5.19963e-07C1789.82 11.3079 1795.73 22.5767 1798.86 33.8846L1756.99 33.8846Z" fill="#2A1A80"/>
<path d="M1624.58 192L1599.97 192L1599.97 158.115L1636.48 158.115C1633.35 169.384 1627.44 180.692 1624.58 192Z" fill="#2A1A80"/>
<path d="M1636.83 192C1639.68 180.692 1645.59 169.423 1648.72 158.115L1690.59 158.115C1687.46 169.384 1681.55 180.692 1678.7 192L1636.83 192Z" fill="#2A1A80"/>
<path d="M1690.98 192C1693.84 180.692 1699.75 169.423 1702.88 158.115L1744.75 158.115C1741.62 169.384 1735.71 180.692 1732.85 192L1690.98 192Z" fill="#2A1A80"/>
<path d="M1799.22 192C1802.07 180.692 1807.98 169.423 1811.11 158.115L1852.98 158.115C1849.85 169.384 1843.94 180.692 1841.08 192L1799.22 192Z" fill="#2A1A80"/>
<path d="M1853.33 192C1856.19 180.692 1862.1 169.423 1865.23 158.115L1907.13 158.115C1904 169.384 1898.09 180.692 1895.24 192L1853.37 192L1853.33 192Z" fill="#2A1A80"/>
<path d="M1919.38 158.115L1919.97 158.115L1919.97 192L1907.48 192C1910.34 180.692 1916.25 169.423 1919.38 158.115Z" fill="#2A1A80"/>
<path d="M1745.1 192C1747.96 180.692 1753.86 169.423 1756.99 158.115L1798.86 158.115C1795.73 169.384 1789.82 180.692 1786.97 192L1745.1 192Z" fill="#2A1A80"/>
<path d="M9.27373 149.899L-5.98537e-05 149.899L-5.81947e-05 111.945L0.508644 111.476C6.61284 122.197 10.0954 135.696 9.23456 149.899L9.27373 149.899Z" fill="#2A1A80"/>
<path d="M52.1981 149.897L15.2599 149.897C15.8468 141.093 15.0251 132.602 12.9121 124.816C21.9119 116.951 30.4421 108.03 38.3462 98.1699C47.2678 111.473 52.7068 129.863 52.1981 149.897Z" fill="#2A1A80"/>
<path d="M34.787 93.2027C27.4698 102.711 19.5265 111.319 11.1527 119.027C8.45282 111.514 4.6181 104.941 0.000826633 99.3849L0.000827292 84.3207C2.30947 80.5253 4.30507 76.6908 5.87025 72.9346C16.3961 76.0257 26.5698 82.7948 34.787 93.1636L34.787 93.2027Z" fill="#2A1A80"/>
<path d="M98.9194 118.832C101.737 116.484 104.476 114.058 107.215 111.476C113.319 122.197 116.802 135.696 115.98 149.899L103.106 149.899C104.202 138.787 102.637 128.027 98.9586 118.832L98.9194 118.832Z" fill="#2A1A80"/>
<path d="M119.62 124.816C128.62 116.951 137.15 108.03 145.054 98.1699C153.976 111.473 159.415 129.863 158.906 149.897L121.968 149.897C122.555 141.093 121.733 132.602 119.62 124.816Z" fill="#2A1A80"/>
<path d="M60.0273 124.66C69.5749 120.748 79.3964 114.683 88.0049 106.936C96.1047 118.087 100.448 133.621 98.6872 149.937L61.2012 149.937C63.1576 141.211 62.6489 132.408 60.0664 124.66L60.0273 124.66Z" fill="#2A1A80"/>
<path d="M90.6267 104.314C92.818 102.201 94.8919 100.01 96.8875 97.7402C99.5483 100.44 102.053 103.492 104.322 106.818C101.818 109.244 99.2744 111.592 96.6919 113.862C94.9702 110.418 92.9354 107.21 90.6267 104.314Z" fill="#2A1A80"/>
<path d="M100.683 93.1245C105.731 86.5901 109.8 79.5863 112.578 72.9346C123.104 76.0257 133.317 82.7948 141.495 93.1636C134.178 102.672 126.235 111.28 117.822 118.988C114.026 108.423 107.961 99.5805 100.683 93.0853L100.683 93.1245Z" fill="#2A1A80"/>
<path d="M205.589 118.832C208.407 116.484 211.146 114.058 213.885 111.476C219.989 122.197 223.472 135.696 222.65 149.899L209.776 149.899C210.872 138.787 209.307 128.027 205.628 118.832L205.589 118.832Z" fill="#2A1A80"/>
<path d="M226.286 124.816C235.286 116.951 243.816 108.03 251.72 98.1699C260.642 111.473 266.081 129.863 265.572 149.897L228.634 149.897C229.221 141.093 228.36 132.602 226.325 124.816L226.286 124.816Z" fill="#2A1A80"/>
<path d="M166.693 124.66C176.241 120.748 186.062 114.683 194.671 106.936C202.771 118.087 207.114 133.621 205.353 149.937L167.867 149.937C169.824 141.211 169.315 132.408 166.732 124.66L166.693 124.66Z" fill="#2A1A80"/>
<path d="M210.987 106.818C208.483 109.244 205.939 111.592 203.357 113.862C201.596 110.418 199.6 107.21 197.331 104.314C199.522 102.201 201.596 100.01 203.592 97.7402C206.252 100.44 208.757 103.492 211.026 106.818L210.987 106.818Z" fill="#2A1A80"/>
<path d="M219.206 72.9737C229.732 76.0648 239.906 82.8339 248.123 93.2027C240.806 102.711 232.862 111.319 224.489 119.027C220.693 108.463 214.628 99.6196 207.35 93.1245C212.398 86.5901 216.467 79.5863 219.245 72.9346L219.206 72.9737Z" fill="#2A1A80"/>
<path d="M312.253 118.832C314.874 116.641 317.457 114.332 320 111.984L320 149.938L316.401 149.938C317.496 138.826 315.931 128.066 312.253 118.871L312.253 118.832Z" fill="#2A1A80"/>
<path d="M273.361 124.66C282.908 120.748 292.73 114.683 301.299 106.936C309.438 118.087 313.781 133.621 311.981 149.937L274.495 149.937C276.452 141.211 275.943 132.408 273.361 124.66Z" fill="#2A1A80"/>
<path d="M310.219 97.7402C312.88 100.44 315.385 103.492 317.654 106.818C315.15 109.244 312.606 111.592 310.024 113.862C308.302 110.418 306.267 107.21 303.998 104.314C306.189 102.201 308.263 100.01 310.259 97.7402L310.219 97.7402Z" fill="#2A1A80"/>
<path d="M314.014 93.1225C316.244 90.266 318.2 87.2922 320 84.3184L320 99.3441C318.122 97.0746 316.127 94.9616 314.014 93.0834L314.014 93.1225Z" fill="#2A1A80"/>
<path d="M54.9778 80.4848C52.2779 77.9415 49.4997 75.4765 46.6824 73.1679C50.3606 63.9338 51.9649 53.2128 50.8301 42.1006L63.7036 42.1006C64.5645 56.3039 61.0429 69.8029 54.9387 80.5239L54.9778 80.4848Z" fill="#2A1A80"/>
<path d="M92.818 93.8273C84.953 83.928 76.3836 75.0461 67.3838 67.1814C69.4577 59.4341 70.3186 50.9043 69.7316 42.1006L106.67 42.1006C107.179 62.1339 101.74 80.5239 92.818 93.8273Z" fill="#2A1A80"/>
<path d="M35.7268 85.0628C27.1183 77.3156 17.2969 71.2116 7.78843 67.338C10.371 59.5907 10.8796 50.8261 8.9231 42.0615L46.4092 42.0615C48.2092 58.3778 43.8657 73.9115 35.7268 85.0628Z" fill="#2A1A80"/>
<path d="M52.0819 85.142C49.8124 88.468 47.308 91.52 44.6472 94.22C42.6907 91.9504 40.5778 89.7592 38.3866 87.6462C40.6561 84.7507 42.6907 81.542 44.4124 78.0986C46.995 80.3681 49.5385 82.6768 52.0427 85.142L52.0819 85.142Z" fill="#2A1A80"/>
<path d="M89.2167 98.7979C81.0386 109.167 70.8649 115.975 60.2999 119.027C57.5218 112.375 53.4524 105.371 48.4047 98.8371C55.6828 92.3811 61.7477 83.5382 65.5433 72.9346C73.917 80.6427 81.8603 89.2508 89.1775 98.7588L89.2167 98.7979Z" fill="#2A1A80"/>
<path d="M161.606 80.4848C158.906 77.9415 156.128 75.4765 153.31 73.1679C156.988 63.9338 158.593 53.2128 157.458 42.1006L170.331 42.1006C171.192 56.3039 167.671 69.8029 161.566 80.5239L161.606 80.4848Z" fill="#2A1A80"/>
<path d="M199.485 93.8273C191.62 83.928 183.051 75.0461 174.051 67.1814C176.125 59.4341 176.985 50.9043 176.359 42.1006L213.298 42.1006C213.806 62.1339 208.367 80.5239 199.446 93.8273L199.485 93.8273Z" fill="#2A1A80"/>
<path d="M142.433 85.0628C133.825 77.3156 124.003 71.2116 114.456 67.338C117.038 59.5907 117.586 50.8261 115.59 42.0615L153.076 42.0615C154.837 58.3778 150.533 73.9115 142.394 85.0628L142.433 85.0628Z" fill="#2A1A80"/>
<path d="M158.748 85.142C156.478 88.468 153.974 91.52 151.313 94.22C149.318 91.9504 147.244 89.7592 145.053 87.6462C147.322 84.7507 149.357 81.542 151.118 78.0986C153.7 80.3681 156.244 82.6768 158.748 85.142Z" fill="#2A1A80"/>
<path d="M195.883 98.7979C187.705 109.167 177.531 115.975 166.966 119.027C164.188 112.375 160.118 105.371 155.071 98.8371C162.349 92.3811 168.414 83.5382 172.209 72.9346C180.622 80.6427 188.526 89.2508 195.844 98.7588L195.883 98.7979Z" fill="#2A1A80"/>
<path d="M268.272 80.4848C265.572 77.9415 262.793 75.4765 259.976 73.1679C263.654 63.9338 265.219 53.2128 264.124 42.1006L276.997 42.1006C277.858 56.3039 274.337 69.8029 268.272 80.5239L268.272 80.4848Z" fill="#2A1A80"/>
<path d="M306.15 93.8273C298.285 83.928 289.716 75.0461 280.716 67.1814C282.79 59.4341 283.651 50.9043 283.064 42.1006L320.002 42.1006C320.511 62.1339 315.072 80.5239 306.189 93.8273L306.15 93.8273Z" fill="#2A1A80"/>
<path d="M249.098 85.0628C240.49 77.3156 230.668 71.2116 221.12 67.338C223.703 59.5907 224.251 50.8261 222.255 42.0615L259.741 42.0615C261.541 58.3778 257.198 73.9115 249.059 85.0628L249.098 85.0628Z" fill="#2A1A80"/>
<path d="M265.418 85.142C263.148 88.468 260.644 91.52 257.983 94.22C256.027 91.9504 253.914 89.7592 251.722 87.6462C253.992 84.7507 256.027 81.542 257.787 78.0986C260.37 80.3681 262.913 82.6768 265.418 85.142Z" fill="#2A1A80"/>
<path d="M302.549 98.7979C294.371 109.167 284.197 115.975 273.632 119.027C270.854 112.375 266.784 105.371 261.737 98.8371C269.015 92.3811 275.08 83.5382 278.875 72.9346C287.249 80.6427 295.193 89.2508 302.51 98.7588L302.549 98.7979Z" fill="#2A1A80"/>
<path d="M36.5486 33.8846L0.0407166 33.8846L0.0407181 -1.59581e-06L24.6532 -5.19964e-07C27.5096 11.3079 33.4182 22.5767 36.5486 33.8846Z" fill="#2A1A80"/>
<path d="M48.7583 33.8846C45.6279 22.5767 39.7193 11.3079 36.8629 -2.35009e-06L78.7315 -5.19959e-07C81.5879 11.3079 87.4964 22.5767 90.6267 33.8846L48.7191 33.8846L48.7583 33.8846Z" fill="#2A1A80"/>
<path d="M102.913 33.8846C99.7825 22.5767 93.8739 11.3079 91.0175 -2.35009e-06L132.886 -5.19959e-07C135.742 11.3079 141.651 22.5767 144.781 33.8846L102.874 33.8846L102.913 33.8846Z" fill="#2A1A80"/>
<path d="M211.146 33.8846C208.015 22.5767 202.107 11.3079 199.25 -2.35009e-06L241.119 -5.19959e-07C243.975 11.3079 249.884 22.5767 253.014 33.8846L211.146 33.8846Z" fill="#2A1A80"/>
<path d="M265.3 33.8846C262.17 22.5767 256.261 11.3079 253.405 -2.35009e-06L295.273 -5.19959e-07C298.13 11.3079 304.038 22.5767 307.169 33.8846L265.3 33.8846Z" fill="#2A1A80"/>
<path d="M307.518 -5.45614e-07L320 0L320 33.8846L319.413 33.8846C316.283 22.5767 310.374 11.3079 307.518 -5.45614e-07Z" fill="#2A1A80"/>
<path d="M157.029 33.8846C153.899 22.5767 147.99 11.3079 145.134 -2.35009e-06L187.002 -5.19964e-07C189.859 11.3079 195.767 22.5767 198.898 33.8846L156.99 33.8846L157.029 33.8846Z" fill="#2A1A80"/>
<path d="M24.615 192L0.00247807 192L0.00247955 158.115L36.5103 158.115C33.38 169.384 27.4714 180.692 24.615 192Z" fill="#2A1A80"/>
<path d="M36.8619 192C39.7184 180.692 45.6269 169.423 48.7573 158.115L90.6649 158.115C87.4954 169.384 81.626 180.692 78.7695 192L36.9011 192L36.8619 192Z" fill="#2A1A80"/>
<path d="M91.0165 192C93.8729 180.692 99.7815 169.423 102.912 158.115L144.82 158.115C141.689 169.384 135.781 180.692 132.924 192L91.0557 192L91.0165 192Z" fill="#2A1A80"/>
<path d="M199.25 192C202.107 180.692 208.015 169.423 211.146 158.115L253.014 158.115C249.884 169.384 243.975 180.692 241.119 192L199.25 192Z" fill="#2A1A80"/>
<path d="M253.363 192C256.219 180.692 262.128 169.423 265.258 158.115L307.127 158.115C303.996 169.384 298.088 180.692 295.231 192L253.363 192Z" fill="#2A1A80"/>
<path d="M319.413 158.115L320 158.115L320 192L307.518 192C310.375 180.692 316.283 169.423 319.413 158.115Z" fill="#2A1A80"/>
<path d="M145.133 192C147.989 180.692 153.898 169.423 157.028 158.115L198.936 158.115C195.766 169.384 189.897 180.692 187.041 192L145.172 192L145.133 192Z" fill="#2A1A80"/>
<path d="M329.274 149.899L320 149.899L320 111.945L320.509 111.476C326.613 122.197 330.095 135.696 329.274 149.899Z" fill="#2A1A80"/>
<path d="M372.2 149.897L335.262 149.897C335.849 141.093 334.988 132.602 332.914 124.816C341.914 116.951 350.444 108.03 358.348 98.1699C367.27 111.473 372.709 129.863 372.2 149.897Z" fill="#2A1A80"/>
<path d="M354.789 93.2027C347.472 102.711 339.528 111.319 331.155 119.027C328.455 111.514 324.62 104.941 320.003 99.3849L320.003 84.3207C322.311 80.5253 324.307 76.6908 325.872 72.9346C336.398 76.0257 346.572 82.7948 354.789 93.1636L354.789 93.2027Z" fill="#2A1A80"/>
<path d="M418.919 118.832C421.737 116.484 424.476 114.058 427.215 111.476C433.319 122.197 436.801 135.696 435.941 149.899L423.067 149.899C424.163 138.787 422.598 128.027 418.919 118.832Z" fill="#2A1A80"/>
<path d="M439.618 124.816C448.618 116.951 457.148 108.03 465.052 98.1699C473.974 111.473 479.413 129.863 478.904 149.897L441.966 149.897C442.553 141.093 441.731 132.602 439.618 124.816Z" fill="#2A1A80"/>
<path d="M380.025 124.66C389.573 120.748 399.394 114.683 408.003 106.936C416.103 118.087 420.446 133.621 418.685 149.937L381.199 149.937C383.156 141.211 382.647 132.408 380.064 124.66L380.025 124.66Z" fill="#2A1A80"/>
<path d="M410.625 104.314C412.816 102.201 414.89 100.01 416.885 97.7402C419.546 100.44 422.05 103.492 424.32 106.818C421.816 109.244 419.272 111.592 416.69 113.862C414.929 110.418 412.933 107.21 410.625 104.314Z" fill="#2A1A80"/>
<path d="M420.643 93.1245C425.69 86.5901 429.76 79.5863 432.538 72.9346C443.064 76.0257 453.238 82.7948 461.455 93.1636C454.137 102.672 446.194 111.28 437.82 118.988C434.025 108.423 427.96 99.5805 420.682 93.0853L420.643 93.1245Z" fill="#2A1A80"/>
<path d="M525.587 118.832C528.405 116.484 531.144 114.058 533.883 111.476C539.987 122.197 543.469 135.696 542.648 149.899L529.774 149.899C530.87 138.787 529.305 128.027 525.626 118.832L525.587 118.832Z" fill="#2A1A80"/>
<path d="M546.288 124.816C555.288 116.951 563.818 108.03 571.722 98.1699C580.644 111.473 586.083 129.863 585.574 149.897L548.636 149.897C549.223 141.093 548.401 132.602 546.288 124.816Z" fill="#2A1A80"/>
<path d="M486.691 124.66C496.239 120.748 506.06 114.683 514.669 106.936C522.769 118.087 527.112 133.621 525.351 149.937L487.865 149.937C489.822 141.211 489.313 132.408 486.73 124.66L486.691 124.66Z" fill="#2A1A80"/>
<path d="M530.986 106.818C528.482 109.244 525.938 111.592 523.356 113.862C521.595 110.418 519.56 107.21 517.291 104.314C519.482 102.201 521.556 100.01 523.551 97.7402C526.212 100.44 528.716 103.492 530.986 106.818Z" fill="#2A1A80"/>
<path d="M539.204 72.9737C549.73 76.0648 559.943 82.8339 568.121 93.2027C560.804 102.711 552.86 111.319 544.448 119.027C540.652 108.463 534.587 99.6196 527.309 93.1245C532.356 86.5901 536.426 79.5863 539.204 72.9346L539.204 72.9737Z" fill="#2A1A80"/>
<path d="M632.254 118.832C634.876 116.641 637.459 114.332 640.002 111.984L640.002 149.938L636.402 149.938C637.498 138.826 635.933 128.066 632.254 118.871L632.254 118.832Z" fill="#2A1A80"/>
<path d="M593.319 124.66C602.867 120.748 612.688 114.683 621.297 106.936C629.396 118.087 633.74 133.621 631.979 149.937L594.493 149.937C596.489 141.211 595.941 132.408 593.358 124.66L593.319 124.66Z" fill="#2A1A80"/>
<path d="M630.221 97.7402C632.882 100.44 635.386 103.492 637.656 106.818C635.152 109.244 632.608 111.592 630.026 113.862C628.265 110.418 626.269 107.21 624 104.314C626.191 102.201 628.265 100.01 630.26 97.7402L630.221 97.7402Z" fill="#2A1A80"/>
<path d="M633.977 93.1225C636.168 90.266 638.164 87.2922 639.964 84.3184L639.964 99.3441C638.086 97.0746 636.09 94.9616 633.977 93.0834L633.977 93.1225Z" fill="#2A1A80"/>
<path d="M374.937 80.4848C372.237 77.9415 369.459 75.4765 366.642 73.1679C370.32 63.9338 371.924 53.2128 370.79 42.1006L383.663 42.1006C384.524 56.3039 381.003 69.8029 374.898 80.5239L374.937 80.4848Z" fill="#2A1A80"/>
<path d="M412.779 93.8273C404.914 83.928 396.344 75.0461 387.344 67.1814C389.418 59.4341 390.279 50.9043 389.653 42.1006L426.591 42.1006C427.1 62.1339 421.661 80.5239 412.739 93.8273L412.779 93.8273Z" fill="#2A1A80"/>
<path d="M355.726 85.0628C347.117 77.3156 337.296 71.2116 327.748 67.338C330.331 59.5907 330.878 50.8261 328.883 42.0615L366.369 42.0615C368.169 58.3778 363.826 73.9115 355.687 85.0628L355.726 85.0628Z" fill="#2A1A80"/>
<path d="M372.084 85.142C369.814 88.468 367.31 91.52 364.649 94.22C362.693 91.9504 360.58 89.7592 358.388 87.6462C360.658 84.7507 362.693 81.542 364.414 78.0986C366.997 80.3681 369.54 82.6768 372.045 85.142L372.084 85.142Z" fill="#2A1A80"/>
<path d="M409.215 98.7979C401.037 109.167 390.863 115.975 380.337 119.027C377.559 112.375 373.489 105.371 368.442 98.8371C375.72 92.3811 381.785 83.5382 385.58 72.9346C393.993 80.6427 401.937 89.2508 409.215 98.7588L409.215 98.7979Z" fill="#2A1A80"/>
<path d="M481.607 80.4848C478.907 77.9415 476.129 75.4765 473.312 73.1679C476.99 63.9338 478.594 53.2128 477.46 42.1006L490.333 42.1006C491.194 56.3039 487.672 69.8029 481.568 80.5239L481.607 80.4848Z" fill="#2A1A80"/>
<path d="M519.444 93.8273C511.579 83.928 503.009 75.0461 494.01 67.1814C496.083 59.4341 496.944 50.9043 496.357 42.1006L533.296 42.1006C533.804 62.1339 528.365 80.5239 519.444 93.8273Z" fill="#2A1A80"/>
<path d="M462.392 85.0628C453.783 77.3156 443.962 71.2116 434.414 67.338C436.997 59.5907 437.505 50.8261 435.549 42.0615L473.035 42.0615C474.835 58.3778 470.491 73.9115 462.352 85.0628L462.392 85.0628Z" fill="#2A1A80"/>
<path d="M478.75 85.142C476.48 88.468 473.976 91.52 471.315 94.22C469.319 91.9504 467.246 89.7592 465.054 87.6462C467.324 84.7507 469.359 81.542 471.08 78.0986C473.663 80.3681 476.206 82.6768 478.711 85.142L478.75 85.142Z" fill="#2A1A80"/>
<path d="M515.884 98.7979C507.706 109.167 497.533 115.975 486.968 119.027C484.19 112.375 480.12 105.371 475.072 98.8371C482.35 92.3811 488.415 83.5382 492.211 72.9346C500.585 80.6427 508.528 89.2508 515.884 98.7588L515.884 98.7979Z" fill="#2A1A80"/>
<path d="M588.273 80.4848C585.573 77.9415 582.795 75.4765 579.978 73.1679C583.656 63.9338 585.26 53.2128 584.126 42.1006L596.999 42.1006C597.86 56.3039 594.338 69.8029 588.273 80.5239L588.273 80.4848Z" fill="#2A1A80"/>
<path d="M626.11 93.8273C618.245 83.928 609.675 75.0461 600.676 67.1814C602.749 59.4341 603.61 50.9043 603.023 42.1006L639.962 42.1006C640.47 62.1339 635.031 80.5239 626.11 93.8273Z" fill="#2A1A80"/>
<path d="M569.062 85.0628C560.453 77.3156 550.631 71.2116 541.084 67.338C543.666 59.5907 544.214 50.8261 542.219 42.0615L579.705 42.0615C581.505 58.3778 577.161 73.9115 569.022 85.0628L569.062 85.0628Z" fill="#2A1A80"/>
<path d="M585.416 85.142C583.146 88.468 580.642 91.52 577.981 94.22C575.986 91.9504 573.912 89.7592 571.72 87.6462C573.99 84.7507 576.025 81.542 577.785 78.0986C580.368 80.3681 582.911 82.6768 585.416 85.142Z" fill="#2A1A80"/>
<path d="M622.551 98.7979C614.372 109.167 604.199 115.975 593.634 119.027C590.856 112.375 586.786 105.371 581.739 98.8371C589.017 92.3811 595.082 83.5382 598.877 72.9346C607.251 80.6427 615.194 89.2508 622.511 98.7588L622.551 98.7979Z" fill="#2A1A80"/>
<path d="M356.508 33.8846L320 33.8846L320 -1.59581e-06L344.613 -5.19964e-07C347.469 11.3079 353.378 22.5767 356.508 33.8846Z" fill="#2A1A80"/>
<path d="M368.756 33.8846C365.626 22.5767 359.717 11.3079 356.861 -2.35009e-06L398.729 -5.19959e-07C401.586 11.3079 407.494 22.5767 410.625 33.8846L368.717 33.8846L368.756 33.8846Z" fill="#2A1A80"/>
<path d="M422.911 33.8846C419.78 22.5767 413.872 11.3079 411.015 -2.35009e-06L452.884 -5.19959e-07C455.74 11.3079 461.649 22.5767 464.779 33.8846L422.911 33.8846Z" fill="#2A1A80"/>
<path d="M531.143 33.8846C528.012 22.5767 522.104 11.3079 519.247 -2.35181e-06L561.155 -5.19964e-07C564.011 11.3079 569.92 22.5767 573.05 33.8846L531.143 33.8846Z" fill="#2A1A80"/>
<path d="M585.259 33.8846C582.129 22.5767 576.22 11.3079 573.364 -2.35181e-06L615.271 -5.19959e-07C618.128 11.3079 624.036 22.5767 627.167 33.8846L585.298 33.8846L585.259 33.8846Z" fill="#2A1A80"/>
<path d="M627.52 -5.45619e-07L640.002 0L640.002 33.8846L639.415 33.8846C636.285 22.5767 630.376 11.3079 627.52 -5.45619e-07Z" fill="#2A1A80"/>
<path d="M477.026 33.8846C473.896 22.5767 467.987 11.3079 465.131 -2.35181e-06L507.038 -5.19964e-07C509.895 11.3079 515.803 22.5767 518.934 33.8846L477.065 33.8846L477.026 33.8846Z" fill="#2A1A80"/>
<path d="M344.613 192L320 192L320 158.115L356.508 158.115C353.378 169.384 347.469 180.692 344.613 192Z" fill="#2A1A80"/>
<path d="M356.86 192C359.716 180.692 365.625 169.423 368.755 158.115L410.663 158.115C407.493 169.384 401.624 180.692 398.767 192L356.899 192L356.86 192Z" fill="#2A1A80"/>
<path d="M410.977 192C413.833 180.692 419.742 169.423 422.872 158.115L464.741 158.115C461.611 169.384 455.702 180.692 452.846 192L410.977 192Z" fill="#2A1A80"/>
<path d="M519.247 192C522.104 180.692 528.012 169.423 531.143 158.115L573.05 158.115C569.92 169.384 564.011 180.692 561.155 192L519.247 192Z" fill="#2A1A80"/>
<path d="M573.364 192C576.221 180.692 582.129 169.423 585.26 158.115L627.128 158.115C623.998 169.384 618.089 180.692 615.233 192L573.325 192L573.364 192Z" fill="#2A1A80"/>
<path d="M639.415 158.115L640.002 158.115L640.002 192L627.52 192C630.376 180.692 636.285 169.423 639.415 158.115Z" fill="#2A1A80"/>
<path d="M465.132 192C467.988 180.692 473.897 169.423 477.027 158.115L518.896 158.115C515.726 169.384 509.857 180.692 507 192L465.093 192L465.132 192Z" fill="#2A1A80"/>
<path d="M649.273 149.899L640 149.899L640 111.945L640.508 111.476C646.612 122.197 650.095 135.696 649.273 149.899Z" fill="#2A1A80"/>
<path d="M692.199 149.897L655.26 149.897C655.847 141.093 655.026 132.602 652.952 124.816C661.952 116.951 670.482 108.03 678.386 98.1699C687.308 111.473 692.746 129.863 692.238 149.897L692.199 149.897Z" fill="#2A1A80"/>
<path d="M674.788 93.2027C667.471 102.711 659.528 111.319 651.154 119.027C648.454 111.514 644.62 104.941 640.002 99.3849L640.002 84.3207C642.311 80.5253 644.307 76.6908 645.872 72.9346C656.398 76.0257 666.571 82.7948 674.788 93.1636L674.788 93.2027Z" fill="#2A1A80"/>
<path d="M738.921 118.832C741.738 116.484 744.477 114.058 747.216 111.476C753.321 122.197 756.803 135.696 755.981 149.899L743.108 149.899C744.203 138.787 742.638 128.027 738.96 118.832L738.921 118.832Z" fill="#2A1A80"/>
<path d="M759.622 124.816C768.621 116.951 777.152 108.03 785.056 98.1699C793.977 111.473 799.416 129.863 798.908 149.897L761.969 149.897C762.556 141.093 761.695 132.602 759.622 124.816Z" fill="#2A1A80"/>
<path d="M700.025 124.66C709.573 120.748 719.394 114.683 728.003 106.936C736.102 118.087 740.446 133.621 738.685 149.937L701.199 149.937C703.155 141.211 702.647 132.408 700.064 124.66L700.025 124.66Z" fill="#2A1A80"/>
<path d="M730.624 104.314C732.816 102.201 734.889 100.01 736.885 97.7402C739.546 100.44 742.05 103.492 744.32 106.818C741.815 109.244 739.272 111.592 736.689 113.862C734.929 110.418 732.933 107.21 730.663 104.314L730.624 104.314Z" fill="#2A1A80"/>
<path d="M740.642 93.1245C745.69 86.5901 749.76 79.5863 752.538 72.9346C763.064 76.0257 773.237 82.7948 781.454 93.1636C774.137 102.672 766.194 111.28 757.82 118.988C754.025 108.423 747.96 99.5805 740.681 93.0853L740.642 93.1245Z" fill="#2A1A80"/>
<path d="M845.547 118.832C848.364 116.484 851.103 114.058 853.842 111.476C859.946 122.197 863.429 135.696 862.568 149.899L849.695 149.899C850.829 138.787 849.225 128.027 845.547 118.832Z" fill="#2A1A80"/>
<path d="M866.249 124.816C875.249 116.951 883.779 108.03 891.684 98.1699C900.605 111.473 906.044 129.863 905.535 149.897L868.597 149.897C869.184 141.093 868.362 132.602 866.289 124.816L866.249 124.816Z" fill="#2A1A80"/>
<path d="M806.653 124.66C816.2 120.748 826.022 114.683 834.63 106.936C842.73 118.087 847.073 133.621 845.313 149.937L807.827 149.937C809.783 141.211 809.274 132.408 806.692 124.66L806.653 124.66Z" fill="#2A1A80"/>
<path d="M850.948 106.818C848.443 109.244 845.9 111.592 843.317 113.862C841.557 110.418 839.561 107.21 837.252 104.314C839.443 102.201 841.517 100.01 843.513 97.7402C846.174 100.44 848.678 103.492 850.948 106.818Z" fill="#2A1A80"/>
<path d="M859.204 72.9737C869.769 76.0648 879.942 82.8339 888.121 93.2027C880.803 102.711 872.86 111.319 864.447 119.027C860.652 108.463 854.587 99.6196 847.309 93.1245C852.356 86.5901 856.426 79.5863 859.204 72.9346L859.204 72.9737Z" fill="#2A1A80"/>
<path d="M952.254 118.832C954.876 116.641 957.458 114.332 960.002 111.984L960.002 149.938L956.402 149.938C957.498 138.826 955.932 128.066 952.254 118.871L952.254 118.832Z" fill="#2A1A80"/>
<path d="M913.319 124.66C922.866 120.748 932.688 114.683 941.296 106.936C949.396 118.087 953.739 133.621 951.979 149.937L914.493 149.937C916.488 141.211 915.94 132.408 913.358 124.66L913.319 124.66Z" fill="#2A1A80"/>
<path d="M950.221 97.7402C952.882 100.44 955.386 103.492 957.656 106.818C955.151 109.244 952.608 111.592 950.025 113.862C948.264 110.418 946.23 107.21 943.96 104.314C946.151 102.201 948.225 100.01 950.221 97.7402Z" fill="#2A1A80"/>
<path d="M953.976 93.1225C956.206 90.266 958.163 87.2922 960.002 84.3184L960.002 99.3441C958.124 97.0746 956.128 94.9616 953.976 93.0834L953.976 93.1225Z" fill="#2A1A80"/>
<path d="M694.937 80.4848C692.237 77.9415 689.459 75.4765 686.642 73.1679C690.32 63.9338 691.885 53.2128 690.789 42.1006L703.663 42.1006C704.524 56.3039 701.002 69.8029 694.937 80.5239L694.937 80.4848Z" fill="#2A1A80"/>
<path d="M732.778 93.8273C724.874 83.928 716.344 75.0461 707.344 67.1814C709.418 59.4341 710.279 50.9043 709.653 42.1006L746.591 42.1006C747.1 62.1339 741.661 80.5239 732.778 93.8273Z" fill="#2A1A80"/>
<path d="M675.725 85.0628C667.117 77.3156 657.295 71.2116 647.748 67.338C650.33 59.5907 650.878 50.8261 648.883 42.0615L686.369 42.0615C688.169 58.3778 683.825 73.9115 675.686 85.0628L675.725 85.0628Z" fill="#2A1A80"/>
<path d="M692.083 85.142C689.814 88.468 687.309 91.52 684.649 94.22C682.692 91.9504 680.579 89.7592 678.388 87.6462C680.658 84.7507 682.692 81.542 684.414 78.0986C686.996 80.3681 689.54 82.6768 692.044 85.142L692.083 85.142Z" fill="#2A1A80"/>
<path d="M729.214 98.7979C721.036 109.167 710.863 115.975 700.298 119.027C697.519 112.375 693.45 105.371 688.402 98.8371C695.68 92.3811 701.746 83.5382 705.541 72.9346C713.915 80.6427 721.858 89.2508 729.175 98.7588L729.214 98.7979Z" fill="#2A1A80"/>
<path d="M801.607 80.4848C798.907 77.9415 796.129 75.4765 793.312 73.1679C796.99 63.9338 798.594 53.2128 797.459 42.1006L810.333 42.1006C811.194 56.3039 807.672 69.8029 801.568 80.5239L801.607 80.4848Z" fill="#2A1A80"/>
<path d="M839.444 93.8273C831.579 83.928 823.01 75.0461 814.01 67.1814C816.084 59.4341 816.945 50.9043 816.319 42.1006L853.257 42.1006C853.766 62.1339 848.327 80.5239 839.405 93.8273L839.444 93.8273Z" fill="#2A1A80"/>
<path d="M782.391 85.0628C773.783 77.3156 763.961 71.2116 754.414 67.338C756.996 59.5907 757.544 50.8261 755.549 42.0615L793.035 42.0615C794.835 58.3778 790.491 73.9115 782.352 85.0628L782.391 85.0628Z" fill="#2A1A80"/>
<path d="M798.749 85.142C796.48 88.468 793.976 91.52 791.315 94.22C789.358 91.9504 787.245 89.7592 785.054 87.6462C787.324 84.7507 789.358 81.542 791.119 78.0986C793.702 80.3681 796.245 82.6768 798.749 85.142Z" fill="#2A1A80"/>
<path d="M835.884 98.7979C827.706 109.167 817.532 115.975 806.967 119.027C804.189 112.375 800.12 105.371 795.072 98.8371C802.35 92.3811 808.415 83.5382 812.211 72.9346C820.624 80.6427 828.567 89.2508 835.845 98.7588L835.884 98.7979Z" fill="#2A1A80"/>
<path d="M908.273 80.4848C905.573 77.9415 902.795 75.4765 899.978 73.1679C903.656 63.9338 905.26 53.2128 904.125 42.1006L916.999 42.1006C917.86 56.3039 914.338 69.8029 908.234 80.5239L908.273 80.4848Z" fill="#2A1A80"/>
<path d="M946.109 93.8273C938.244 83.928 929.675 75.0461 920.675 67.1814C922.749 59.4341 923.61 50.9043 923.023 42.1006L959.961 42.1006C960.47 62.1339 955.031 80.5239 946.109 93.8273Z" fill="#2A1A80"/>
<path d="M889.059 85.0628C880.45 77.3156 870.629 71.2116 861.081 67.338C863.664 59.5907 864.172 50.8261 862.216 42.0615L899.702 42.0615C901.463 58.3778 897.158 73.9115 889.02 85.0628L889.059 85.0628Z" fill="#2A1A80"/>
<path d="M905.377 85.142C903.108 88.468 900.603 91.52 897.943 94.22C895.947 91.9504 893.873 89.7592 891.682 87.6462C893.951 84.7507 895.986 81.542 897.747 78.0986C900.33 80.3681 902.873 82.6768 905.377 85.142Z" fill="#2A1A80"/>
<path d="M942.55 98.7979C934.372 109.167 924.198 115.975 913.633 119.027C910.855 112.375 906.786 105.371 901.738 98.8371C909.016 92.3811 915.081 83.5382 918.877 72.9346C927.251 80.6427 935.194 89.2508 942.55 98.7588L942.55 98.7979Z" fill="#2A1A80"/>
<path d="M676.508 33.8846L640 33.8846L640 -1.5958e-06L664.613 -5.19964e-07C667.469 11.3079 673.378 22.5767 676.508 33.8846Z" fill="#2A1A80"/>
<path d="M688.756 33.8846C685.626 22.5767 679.717 11.3079 676.86 -2.35009e-06L718.729 -5.19959e-07C721.586 11.3079 727.494 22.5767 730.624 33.8846L688.717 33.8846L688.756 33.8846Z" fill="#2A1A80"/>
<path d="M742.871 33.8846C739.741 22.5767 733.832 11.3079 730.976 -2.35181e-06L772.884 -5.19964e-07C775.74 11.3079 781.649 22.5767 784.779 33.8846L742.91 33.8846L742.871 33.8846Z" fill="#2A1A80"/>
<path d="M851.142 33.8846C848.012 22.5767 842.103 11.3079 839.247 -2.35181e-06L881.154 -5.19964e-07C884.011 11.3079 889.92 22.5767 893.05 33.8846L851.181 33.8846L851.142 33.8846Z" fill="#2A1A80"/>
<path d="M905.259 33.8846C902.129 22.5767 896.221 11.3079 893.364 -2.35009e-06L935.233 -5.19964e-07C938.089 11.3079 943.998 22.5767 947.128 33.8846L905.22 33.8846L905.259 33.8846Z" fill="#2A1A80"/>
<path d="M947.481 -5.45619e-07L959.964 0L959.963 33.8846L959.377 33.8846C956.246 22.5767 950.338 11.3079 947.481 -5.45619e-07Z" fill="#2A1A80"/>
<path d="M797.027 33.8846C793.896 22.5767 787.988 11.3079 785.132 -2.35009e-06L827 -5.19964e-07C829.856 11.3079 835.765 22.5767 838.895 33.8846L796.988 33.8846L797.027 33.8846Z" fill="#2A1A80"/>
<path d="M664.613 192L640 192L640 158.115L676.508 158.115C673.378 169.384 667.469 180.692 664.613 192Z" fill="#2A1A80"/>
<path d="M676.86 192C679.716 180.692 685.625 169.423 688.755 158.115L730.663 158.115C727.532 169.384 721.624 180.692 718.767 192L676.899 192L676.86 192Z" fill="#2A1A80"/>
<path d="M730.977 192C733.833 180.692 739.742 169.423 742.872 158.115L784.741 158.115C781.61 169.384 775.702 180.692 772.845 192L730.977 192Z" fill="#2A1A80"/>
<path d="M839.248 192C842.104 180.692 848.013 169.423 851.143 158.115L893.012 158.115C889.881 169.384 883.973 180.692 881.116 192L839.209 192L839.248 192Z" fill="#2A1A80"/>
<path d="M893.363 192C896.22 180.692 902.128 169.423 905.259 158.115L947.166 158.115C943.997 169.384 938.127 180.692 935.271 192L893.402 192L893.363 192Z" fill="#2A1A80"/>
<path d="M959.415 158.115L960.002 158.115L960.002 192L947.52 192C950.376 180.692 956.285 169.423 959.415 158.115Z" fill="#2A1A80"/>
<path d="M785.092 192C787.949 180.692 793.857 169.423 796.988 158.115L838.895 158.115C835.765 169.384 829.856 180.692 827 192L785.131 192L785.092 192Z" fill="#2A1A80"/>
</svg>
