<svg width="28" height="28" viewBox="0 0 28 28" fill="none" xmlns="http://www.w3.org/2000/svg">
<path d="M14 27.3333C6.63596 27.3333 0.666626 21.364 0.666626 14C0.666626 6.63599 6.63596 0.666656 14 0.666656C21.364 0.666656 27.3333 6.63599 27.3333 14C27.3333 21.364 21.364 27.3333 14 27.3333ZM14 24.6667C16.8289 24.6667 19.542 23.5429 21.5424 21.5425C23.5428 19.5421 24.6666 16.829 24.6666 14C24.6666 11.171 23.5428 8.45791 21.5424 6.45752C19.542 4.45713 16.8289 3.33332 14 3.33332C11.171 3.33332 8.45788 4.45713 6.45749 6.45752C4.4571 8.45791 3.33329 11.171 3.33329 14C3.33329 16.829 4.4571 19.5421 6.45749 21.5425C8.45788 23.5429 11.171 24.6667 14 24.6667ZM12.6666 18H15.3333V20.6667H12.6666V18ZM15.3333 15.8067V16.6667H12.6666V14.6667C12.6666 14.313 12.8071 13.9739 13.0572 13.7238C13.3072 13.4738 13.6463 13.3333 14 13.3333C14.3787 13.3333 14.7497 13.2257 15.0697 13.0231C15.3897 12.8205 15.6456 12.5311 15.8077 12.1888C15.9697 11.8464 16.0311 11.4651 15.9849 11.0891C15.9386 10.7132 15.7866 10.3581 15.5464 10.0652C15.3062 9.77231 14.9878 9.55363 14.6283 9.43462C14.2687 9.3156 13.8827 9.30115 13.5152 9.39293C13.1477 9.48471 12.8138 9.67896 12.5524 9.95308C12.291 10.2272 12.1129 10.5699 12.0386 10.9413L9.42263 10.4173C9.5848 9.60677 9.95931 8.85382 10.5079 8.23544C11.0564 7.61706 11.7593 7.15543 12.5447 6.89775C13.3302 6.64007 14.1699 6.59557 14.9782 6.76881C15.7865 6.94205 16.5342 7.32681 17.1451 7.88376C17.7559 8.4407 18.2079 9.14986 18.4548 9.93874C18.7017 10.7276 18.7347 11.5679 18.5504 12.3737C18.3662 13.1796 17.9712 13.922 17.406 14.5251C16.8407 15.1283 16.1255 15.5705 15.3333 15.8067Z" fill="#2A1A80"/>
</svg>
