<svg width="25" height="25" viewBox="0 0 25 25" fill="none" xmlns="http://www.w3.org/2000/svg">
<path d="M8.988 10.7427C10.2391 12.9406 12.0594 14.7609 14.2573 16.012L15.436 14.3613C15.6255 14.0959 15.9058 13.9092 16.2237 13.8364C16.5417 13.7637 16.8752 13.81 17.1613 13.9667C19.0471 14.9972 21.1296 15.617 23.272 15.7853C23.6064 15.8118 23.9185 15.9634 24.1461 16.2098C24.3737 16.4561 24.5 16.7793 24.5 17.1147V23.064C24.5001 23.3941 24.3777 23.7125 24.1565 23.9576C23.9353 24.2027 23.6311 24.357 23.3027 24.3907C22.596 24.464 21.884 24.5 21.1667 24.5C9.75333 24.5 0.5 15.2467 0.5 3.83333C0.5 3.116 0.536 2.404 0.609333 1.69733C0.643006 1.36893 0.797312 1.06469 1.04239 0.843512C1.28746 0.62233 1.60587 0.499929 1.936 0.5H7.88533C8.22075 0.499958 8.54386 0.626335 8.79024 0.853934C9.03662 1.08153 9.18817 1.39363 9.21467 1.728C9.38297 3.87039 10.0028 5.95291 11.0333 7.83867C11.19 8.12475 11.2363 8.45832 11.1636 8.77626C11.0908 9.0942 10.9041 9.37446 10.6387 9.564L8.988 10.7427ZM5.62533 9.86667L8.15867 8.05733C7.43971 6.50546 6.94714 4.85845 6.696 3.16667H3.18C3.172 3.388 3.168 3.61067 3.168 3.83333C3.16667 13.7747 11.2253 21.8333 21.1667 21.8333C21.3893 21.8333 21.612 21.8293 21.8333 21.82V18.304C20.1415 18.0529 18.4945 17.5603 16.9427 16.8413L15.1333 19.3747C14.4049 19.0916 13.6973 18.7575 13.016 18.3747L12.9387 18.3307C10.3234 16.8423 8.15771 14.6766 6.66933 12.0613L6.62533 11.984C6.24254 11.3027 5.90838 10.5951 5.62533 9.86667Z" fill="#2A1A80"/>
</svg>
