<svg width="50" height="50" viewBox="0 0 50 50" fill="none" xmlns="http://www.w3.org/2000/svg">
<g clip-path="url(#clip0_283_667)">
<path d="M39.5833 20.8334H41.6667C42.2192 20.8334 42.7491 21.0529 43.1398 21.4436C43.5305 21.8343 43.75 22.3642 43.75 22.9167V43.7501C43.75 44.3026 43.5305 44.8325 43.1398 45.2232C42.7491 45.6139 42.2192 45.8334 41.6667 45.8334H8.33333C7.7808 45.8334 7.25089 45.6139 6.86019 45.2232C6.46949 44.8325 6.25 44.3026 6.25 43.7501V22.9167C6.25 22.3642 6.46949 21.8343 6.86019 21.4436C7.25089 21.0529 7.7808 20.8334 8.33333 20.8334H10.4167V18.7501C10.4167 16.835 10.7939 14.9386 11.5268 13.1693C12.2596 11.4 13.3338 9.79229 14.688 8.43811C16.0422 7.08392 17.6499 6.00972 19.4192 5.27684C21.1885 4.54396 23.0849 4.16675 25 4.16675C26.9151 4.16675 28.8115 4.54396 30.5808 5.27684C32.3501 6.00972 33.9578 7.08392 35.312 8.43811C36.6662 9.79229 37.7404 11.4 38.4732 13.1693C39.2061 14.9386 39.5833 16.835 39.5833 18.7501V20.8334ZM10.4167 25.0001V41.6667H39.5833V25.0001H10.4167ZM22.9167 29.1667H27.0833V37.5001H22.9167V29.1667ZM35.4167 20.8334V18.7501C35.4167 15.9874 34.3192 13.3379 32.3657 11.3844C30.4122 9.43088 27.7627 8.33341 25 8.33341C22.2373 8.33341 19.5878 9.43088 17.6343 11.3844C15.6808 13.3379 14.5833 15.9874 14.5833 18.7501V20.8334H35.4167Z" fill="#2A1A80"/>
</g>
<defs>
<clipPath id="clip0_283_667">
<rect width="50" height="50" fill="white"/>
</clipPath>
</defs>
</svg>
