<svg width="50" height="50" viewBox="0 0 50 50" fill="none" xmlns="http://www.w3.org/2000/svg">
<g clip-path="url(#clip0_283_662)">
<path d="M4.16663 24.9999C4.16663 23.1979 4.39579 21.452 4.82496 19.7833C5.97593 19.8438 7.12121 19.5848 8.13421 19.0351C9.14721 18.4853 9.98846 17.6662 10.565 16.6682C11.1415 15.6702 11.4308 14.5322 11.4009 13.38C11.3711 12.2278 11.0232 11.1063 10.3958 10.1395C12.9144 7.66155 16.0224 5.86556 19.427 4.92078C19.9499 5.94884 20.7471 6.81217 21.7303 7.41517C22.7136 8.01818 23.8445 8.33735 24.9979 8.33735C26.1513 8.33735 27.2822 8.01818 28.2654 7.41517C29.2486 6.81217 30.0458 5.94884 30.5687 4.92078C33.9733 5.86556 37.0813 7.66155 39.6 10.1395C38.9718 11.1065 38.6234 12.2284 38.5934 13.3811C38.5633 14.5338 38.8527 15.6724 39.4295 16.6708C40.0064 17.6692 40.8482 18.4886 41.8618 19.0383C42.8755 19.588 44.0214 19.8465 45.1729 19.7854C45.602 21.452 45.8312 23.1979 45.8312 24.9999C45.8312 26.802 45.602 28.5479 45.1729 30.2166C44.0217 30.1557 42.8762 30.4143 41.8629 30.9639C40.8496 31.5135 40.008 32.3327 39.4312 33.3307C38.8544 34.3288 38.5649 35.467 38.5947 36.6193C38.6245 37.7717 38.9724 38.8934 39.6 39.8604C37.0813 42.3383 33.9733 44.1343 30.5687 45.0791C30.0458 44.051 29.2486 43.1877 28.2654 42.5847C27.2822 41.9817 26.1513 41.6625 24.9979 41.6625C23.8445 41.6625 22.7136 41.9817 21.7303 42.5847C20.7471 43.1877 19.9499 44.051 19.427 45.0791C16.0224 44.1343 12.9144 42.3383 10.3958 39.8604C11.0239 38.8934 11.3723 37.7715 11.4024 36.6188C11.4325 35.4661 11.1431 34.3275 10.5662 33.3291C9.98939 32.3307 9.14757 31.5113 8.13393 30.9616C7.12029 30.4119 5.97434 30.1533 4.82288 30.2145C4.39579 28.5499 4.16663 26.8041 4.16663 24.9999ZM14.175 31.2499C15.4875 33.5229 15.8625 36.1374 15.35 38.5916C16.2 39.1958 17.1041 39.7187 18.052 40.1541C19.9618 38.4434 22.436 37.4982 25 37.4999C27.625 37.4999 30.0791 38.4812 31.9479 40.1541C32.8958 39.7187 33.8 39.1958 34.65 38.5916C34.1238 36.0832 34.5422 33.4688 35.825 31.2499C37.1054 29.0299 39.1604 27.3607 41.5958 26.5624C41.6921 25.523 41.6921 24.4769 41.5958 23.4374C39.1596 22.6397 37.1039 20.9704 35.8229 18.7499C34.5401 16.531 34.1217 13.9167 34.6479 11.4083C33.7981 10.8039 32.8934 10.2808 31.9458 9.84578C30.0366 11.5561 27.5632 12.5012 25 12.4999C22.436 12.5017 19.9618 11.5565 18.052 9.84578C17.1044 10.2808 16.1997 10.804 15.35 11.4083C15.8761 13.9167 15.4577 16.531 14.175 18.7499C12.8945 20.97 10.8395 22.6392 8.40413 23.4374C8.30778 24.4769 8.30778 25.523 8.40413 26.5624C10.8403 27.3602 12.8961 29.0295 14.177 31.2499H14.175ZM25 31.2499C23.3424 31.2499 21.7526 30.5915 20.5805 29.4194C19.4084 28.2473 18.75 26.6575 18.75 24.9999C18.75 23.3423 19.4084 21.7526 20.5805 20.5805C21.7526 19.4084 23.3424 18.7499 25 18.7499C26.6576 18.7499 28.2473 19.4084 29.4194 20.5805C30.5915 21.7526 31.25 23.3423 31.25 24.9999C31.25 26.6575 30.5915 28.2473 29.4194 29.4194C28.2473 30.5915 26.6576 31.2499 25 31.2499ZM25 27.0833C25.5525 27.0833 26.0824 26.8638 26.4731 26.4731C26.8638 26.0824 27.0833 25.5525 27.0833 24.9999C27.0833 24.4474 26.8638 23.9175 26.4731 23.5268C26.0824 23.1361 25.5525 22.9166 25 22.9166C24.4474 22.9166 23.9175 23.1361 23.5268 23.5268C23.1361 23.9175 22.9166 24.4474 22.9166 24.9999C22.9166 25.5525 23.1361 26.0824 23.5268 26.4731C23.9175 26.8638 24.4474 27.0833 25 27.0833Z" fill="#2A1A80"/>
</g>
<defs>
<clipPath id="clip0_283_662">
<rect width="50" height="50" fill="white"/>
</clipPath>
</defs>
</svg>
