<svg width="50" height="50" viewBox="0 0 50 50" fill="none" xmlns="http://www.w3.org/2000/svg">
<g clip-path="url(#clip0_283_672)">
<path d="M7.88125 5.88742L25 2.08325L42.1187 5.88742C42.5814 5.99026 42.9951 6.24776 43.2917 6.61743C43.5883 6.98709 43.7499 7.44683 43.75 7.92075V28.727C43.7498 30.7848 43.2417 32.8107 42.2706 34.6249C41.2995 36.4392 39.8956 37.9856 38.1833 39.127L25 47.9166L11.8167 39.127C10.1047 37.9858 8.70096 36.4397 7.72989 34.6259C6.75882 32.812 6.25049 30.7865 6.25 28.7291V7.92075C6.25008 7.44683 6.41175 6.98709 6.70831 6.61743C7.00488 6.24776 7.41862 5.99026 7.88125 5.88742ZM10.4167 9.59159V28.727C10.4167 30.0988 10.7554 31.4494 11.4026 32.6589C12.0499 33.8683 12.9857 34.8993 14.1271 35.6603L25 42.9103L35.8729 35.6603C37.014 34.8995 37.9496 33.8689 38.5969 32.6598C39.2441 31.4507 39.583 30.1005 39.5833 28.7291V9.59159L25 6.35409L10.4167 9.59159Z" fill="#2A1A80"/>
</g>
<defs>
<clipPath id="clip0_283_672">
<rect width="50" height="50" fill="white"/>
</clipPath>
</defs>
</svg>
