<svg width="50" height="50" viewBox="0 0 50 50" fill="none" xmlns="http://www.w3.org/2000/svg">
<g clip-path="url(#clip0_283_657)">
<path d="M25 4.16663C36.5063 4.16663 45.8334 13.4937 45.8334 25C45.8334 36.5062 36.5063 45.8333 25 45.8333C13.4938 45.8333 4.16669 36.5062 4.16669 25C4.16669 13.4937 13.4938 4.16663 25 4.16663ZM25 8.33329C15.7959 8.33329 8.33335 15.7958 8.33335 25C8.33335 34.2041 15.7959 41.6666 25 41.6666C34.2042 41.6666 41.6667 34.2041 41.6667 25C41.6667 15.7958 34.2042 8.33329 25 8.33329ZM25 10.4166C27.1209 10.4166 29.1354 10.8687 30.9542 11.6833L27.6979 14.9375C26.8375 14.7083 25.9334 14.5833 25 14.5833C19.2479 14.5833 14.5834 19.2479 14.5834 25C14.5834 27.875 15.75 30.4791 17.6334 32.3666L14.6875 35.3125L14.3625 34.977C11.9167 32.3687 10.4167 28.8583 10.4167 25C10.4167 16.9458 16.9459 10.4166 25 10.4166ZM38.3167 19.0479C39.1292 20.8645 39.5834 22.8812 39.5834 25C39.5834 29.027 37.95 32.6729 35.3125 35.3125L32.3667 32.3666C34.25 30.4791 35.4167 27.875 35.4167 25C35.4167 24.0666 35.2938 23.1625 35.0625 22.302L38.3167 19.0479ZM33.8375 13.2145L36.7854 16.1604L29.0271 23.9229C29.1188 24.2666 29.1667 24.627 29.1667 25C29.1667 27.302 27.3021 29.1666 25 29.1666C22.6979 29.1666 20.8334 27.302 20.8334 25C20.8334 22.6979 22.6979 20.8333 25 20.8333C25.3729 20.8333 25.7334 20.8812 26.0771 20.9729L33.8396 13.2145H33.8375Z" fill="#2A1A80"/>
</g>
<defs>
<clipPath id="clip0_283_657">
<rect width="50" height="50" fill="white"/>
</clipPath>
</defs>
</svg>
