<svg width="28" height="24" viewBox="0 0 28 24" fill="none" xmlns="http://www.w3.org/2000/svg">
<path d="M2.00001 0H26C26.3536 0 26.6928 0.140476 26.9428 0.390524C27.1929 0.640573 27.3333 0.979711 27.3333 1.33333V22.6667C27.3333 23.0203 27.1929 23.3594 26.9428 23.6095C26.6928 23.8595 26.3536 24 26 24H2.00001C1.64638 24 1.30724 23.8595 1.0572 23.6095C0.807147 23.3594 0.666672 23.0203 0.666672 22.6667V1.33333C0.666672 0.979711 0.807147 0.640573 1.0572 0.390524C1.30724 0.140476 1.64638 0 2.00001 0ZM24.6667 5.65067L14.096 15.1173L3.33334 5.62133V21.3333H24.6667V5.65067ZM4.01467 2.66667L14.0813 11.5493L24.0027 2.66667H4.01467Z" fill="white"/>
</svg>
